<svg width="20" height="20" viewBox="0 0 20 20" fill="none" xmlns="http://www.w3.org/2000/svg">
<rect width="20" height="20" rx="10" fill="#6F73EE"/>
<path d="M6.02656 8.56C6.02656 8.87333 6.09656 9.16 6.23656 9.42C6.38323 9.67333 6.58656 9.87667 6.84656 10.03C7.10656 10.1833 7.3999 10.26 7.72656 10.26C8.06656 10.26 8.36323 10.1833 8.61656 10.03C8.87656 9.87667 9.07656 9.67333 9.21656 9.42C9.36323 9.16 9.43656 8.87333 9.43656 8.56C9.43656 8.24667 9.36323 7.96333 9.21656 7.71C9.07656 7.45 8.87656 7.24333 8.61656 7.09C8.36323 6.93667 8.06656 6.86 7.72656 6.86C7.3999 6.86 7.10656 6.93667 6.84656 7.09C6.58656 7.24333 6.38323 7.45 6.23656 7.71C6.09656 7.96333 6.02656 8.24667 6.02656 8.56ZM6.94656 8.56C6.94656 8.40667 6.9799 8.26667 7.04656 8.14C7.11323 8.01333 7.20323 7.91333 7.31656 7.84C7.43656 7.76667 7.57323 7.73 7.72656 7.73C7.89323 7.73 8.03323 7.76667 8.14656 7.84C8.2599 7.91333 8.3499 8.01333 8.41656 8.14C8.48323 8.26667 8.51656 8.40667 8.51656 8.56C8.51656 8.70667 8.48323 8.84667 8.41656 8.98C8.3499 9.10667 8.2599 9.21 8.14656 9.29C8.03323 9.36333 7.89323 9.4 7.72656 9.4C7.57323 9.4 7.43656 9.36333 7.31656 9.29C7.20323 9.21 7.11323 9.10667 7.04656 8.98C6.9799 8.84667 6.94656 8.70667 6.94656 8.56ZM10.1966 12.44C10.1966 12.7467 10.2699 13.03 10.4166 13.29C10.5632 13.55 10.7632 13.7567 11.0166 13.91C11.2766 14.0567 11.5732 14.13 11.9066 14.13C12.2399 14.13 12.5332 14.0567 12.7866 13.91C13.0466 13.7567 13.2466 13.55 13.3866 13.29C13.5332 13.03 13.6066 12.7467 13.6066 12.44C13.6066 12.12 13.5332 11.8333 13.3866 11.58C13.2466 11.32 13.0466 11.1167 12.7866 10.97C12.5332 10.8167 12.2399 10.74 11.9066 10.74C11.5732 10.74 11.2766 10.8167 11.0166 10.97C10.7632 11.1167 10.5632 11.32 10.4166 11.58C10.2699 11.8333 10.1966 12.12 10.1966 12.44ZM11.1266 12.43C11.1266 12.2833 11.1566 12.1467 11.2166 12.02C11.2832 11.8933 11.3732 11.7933 11.4866 11.72C11.6066 11.64 11.7466 11.6 11.9066 11.6C12.0666 11.6 12.2032 11.64 12.3166 11.72C12.4366 11.7933 12.5266 11.8933 12.5866 12.02C12.6532 12.1467 12.6866 12.2833 12.6866 12.43C12.6866 12.5833 12.6532 12.7233 12.5866 12.85C12.5266 12.9767 12.4366 13.08 12.3166 13.16C12.2032 13.2333 12.0666 13.27 11.9066 13.27C11.7466 13.27 11.6066 13.2333 11.4866 13.16C11.3732 13.08 11.2832 12.9767 11.2166 12.85C11.1566 12.7167 11.1266 12.5767 11.1266 12.43ZM11.7066 7L6.85656 14H7.92656L12.7766 7H11.7066Z" fill="white"/>
</svg>
