<svg width="19" height="19" viewBox="0 0 19 19" fill="none" xmlns="http://www.w3.org/2000/svg">
<g clip-path="url(#clip0_360_56907)">
<path d="M9.49518 0.505864C4.52755 0.506918 0.501342 4.53485 0.502396 9.50248C0.502748 11.2226 0.996366 12.9065 1.92464 14.3547L0.525234 17.9855C0.450712 18.1787 0.546843 18.3956 0.739947 18.4701C0.783129 18.4868 0.82898 18.4953 0.875254 18.4953C0.918189 18.4955 0.960809 18.4881 1.00118 18.4735L4.74897 17.1355C8.96565 19.7618 14.5129 18.4724 17.1391 14.2557C19.7652 10.039 18.4759 4.49174 14.2592 1.86557C12.8298 0.975309 11.1792 0.504212 9.49518 0.505864Z" fill="#75D14A"/>
<path d="M13.7817 11.0369C13.7817 11.0369 12.8635 10.5871 12.2886 10.2873C11.638 9.95226 10.8735 10.5796 10.5137 10.9364C9.95372 10.7213 9.44229 10.3967 9.00932 9.98149C8.59405 9.54858 8.2694 9.03715 8.05437 8.47713C8.41117 8.1166 9.03704 7.35279 8.7035 6.70219C8.40741 6.12653 7.95395 5.20834 7.95395 5.20834C7.89032 5.08206 7.76106 5.00234 7.61964 5.0022H6.87009C5.77851 5.19073 4.98483 6.14319 4.99621 7.25087C4.99621 8.42766 6.40462 10.6883 7.35433 11.6388C8.30404 12.5892 10.5647 13.9969 11.7422 13.9969C12.8499 14.0083 13.8024 13.2145 13.9909 12.123V11.3734C13.991 11.2305 13.9099 11.1 13.7817 11.0369Z" fill="white"/>
</g>
<defs>
<clipPath id="clip0_360_56907">
<rect width="18" height="18" fill="white" transform="translate(0.5 0.5)"/>
</clipPath>
</defs>
</svg>
